<svg width="96" height="96" viewBox="0 0 96 96" fill="none" xmlns="http://www.w3.org/2000/svg" role="img" aria-label="Gibraltar mark">
  <rect width="96" height="96" rx="24" fill="#071426"/>
  <path d="M24 61.7L45.8 20L74 58.8C66.2 62.8 58.4 62.9 50.6 59.1C42.4 55.1 33.8 56 24 61.7Z" fill="#A96D4D"/>
  <path d="M45.8 20L74 58.8C66.8 62.5 59.5 62.7 52.2 59.9L55.8 42.5L49.1 35.4L52.6 28.7L45.8 20Z" fill="#5C3A2A"/>
  <path d="M30.5 54.7L39.2 47.8L42.2 57.8L49.1 35.4L55.8 42.5L53.1 53.8L61.4 46.9" stroke="#E8B68F" stroke-width="3.1" stroke-linecap="round" stroke-linejoin="round"/>
  <path d="M24 61.7C32.9 56.4 41.7 55.9 50.6 60.2C58.4 64 66.2 63.7 74 59.4" stroke="#168EEA" stroke-width="4.6" stroke-linecap="round"/>
  <path d="M24 72.3C33.2 68.5 42.3 68.5 51.4 72.3C58.4 75.2 65.6 75.2 73 72.5" stroke="#2F56E8" stroke-width="4" stroke-linecap="round"/>
  <defs>
  </defs>
</svg>
