<svg width="96" height="96" viewBox="0 0 96 96" fill="none" xmlns="http://www.w3.org/2000/svg" role="img" aria-label="Gibraltar mark">
  <rect width="96" height="96" rx="24" fill="#030405"/>
  <rect x="1" y="1" width="94" height="94" rx="23" stroke="url(#edgeGlow)" stroke-opacity="0.72" stroke-width="2"/>
  <path d="M24 61.7L45.8 20L74 58.8C66.2 62.8 58.4 62.9 50.6 59.1C42.4 55.1 33.8 56 24 61.7Z" fill="#E7EEF8" fill-opacity="0.92"/>
  <path d="M45.8 20L74 58.8C66.8 62.5 59.5 62.7 52.2 59.9L55.8 42.5L49.1 35.4L52.6 28.7L45.8 20Z" fill="#7C8797"/>
  <path d="M27.3 55.4L39.1 51.3L42.3 53.4L49.1 43.2L55.8 45.9L60.3 39.9" stroke="#FFFFFF" stroke-opacity="0.9" stroke-width="3.1" stroke-linecap="round" stroke-linejoin="round" clip-path="url(#mountainClip)"/>
  <path d="M24 61.7C32.9 56.4 41.7 55.9 50.6 60.2C58.4 64 66.2 63.7 74 59.4" stroke="#CFFAFE" stroke-width="4.6" stroke-linecap="round"/>
  <path d="M24 72.3C33.2 68.5 42.3 68.5 51.4 72.3C58.4 75.2 65.6 75.2 73 72.5" stroke="#8FB4FF" stroke-width="4" stroke-linecap="round"/>
  <defs>
    <linearGradient id="edgeGlow" x1="13" y1="8" x2="86" y2="91" gradientUnits="userSpaceOnUse">
      <stop stop-color="#FFFFFF" stop-opacity="0.86"/>
      <stop offset="0.48" stop-color="#3D4757" stop-opacity="0.48"/>
      <stop offset="1" stop-color="#7DD3FC" stop-opacity="0.62"/>
    </linearGradient>
    <clipPath id="mountainClip">
      <path d="M24 61.7L45.8 20L74 58.8C66.2 62.8 58.4 62.9 50.6 59.1C42.4 55.1 33.8 56 24 61.7Z"/>
    </clipPath>
  </defs>
</svg>
