<svg width="96" height="96" viewBox="0 0 96 96" fill="none" xmlns="http://www.w3.org/2000/svg" role="img" aria-label="Gibraltar mark">
  <rect x="1" y="1" width="94" height="94" rx="21" fill="#F4F7ED" stroke="#11170F" stroke-width="2"/>
  <path d="M25 66.5L45.8 20.5L73.5 63C65.4 66.7 57.7 66.7 50.2 62.9C42.6 59.1 34.2 60.3 25 66.5Z" fill="#DFEAD5" stroke="#11170F" stroke-width="2.4" stroke-linejoin="round"/>
  <path d="M34.2 60.1C38.2 55.9 43.2 54.8 49.2 56.8C54.6 58.6 59.7 58.1 64.4 55.2" stroke="#11170F" stroke-width="1.6" stroke-linecap="round"/>
  <path d="M35.8 53.5C40.3 49.6 45.1 48.7 50.1 50.8C54.5 52.7 58.8 52.3 63 49.6" stroke="#11170F" stroke-width="1.35" stroke-linecap="round"/>
  <path d="M38.4 46.7C42.3 43.9 46.3 43.4 50.5 45.3C54 46.8 57.5 46.4 61 44" stroke="#11170F" stroke-width="1.2" stroke-linecap="round"/>
  <path d="M41.1 39.6C44.1 37.7 47.2 37.6 50.4 39.3C53.3 40.8 56.1 40.7 58.9 38.8" stroke="#11170F" stroke-width="1.05" stroke-linecap="round"/>
  <path d="M43.8 32.8C46.1 31.7 48.4 31.9 50.8 33.5C52.7 34.8 54.7 35 56.8 34.1" stroke="#11170F" stroke-width="0.95" stroke-linecap="round"/>
  <path d="M25.5 72.2C34.4 68.5 43.1 68.6 51.7 72.5C58.9 75.7 66 75.6 73 72.3" stroke="#275D38" stroke-width="4.2" stroke-linecap="round"/>
  <circle cx="72" cy="24" r="5.8" fill="#275D38"/>
  <path d="M69.8 24.1L71.5 25.8L74.6 21.8" stroke="#F4F7ED" stroke-width="1.5" stroke-linecap="round" stroke-linejoin="round"/>
</svg>
